<svg width="1280" height="720" xmlns="http://www.w3.org/2000/svg" xmlns:xlink="http://www.w3.org/1999/xlink" overflow="hidden"><defs><clipPath id="clip0"><rect x="0" y="0" width="1280" height="720"/></clipPath></defs><g clip-path="url(#clip0)"><rect x="0" y="0" width="1280" height="720" fill="#FFFFFF"/><text fill="#003D59" font-family="Arial,Arial_MSFontService,sans-serif" font-weight="400" font-size="53" transform="translate(481.205 166)">Reproducible<tspan font-size="53" x="352.779" y="220">Auditable</tspan><tspan font-size="53" x="59.9127" y="439">Assured</tspan></text><path d="M487.345 587.477 480.65 587.212 471.556 585.946 462.684 584.101 453.927 581.738 445.393 578.907 436.943 575.555 428.687 571.662 420.624 567.322 412.745 562.598 405.079 557.3 397.664 551.723 390.356 545.593 383.407 539.114 376.652 532.27 364.04 517.529 352.469 501.246 342.207 483.717 333.198 464.967 329.233 455.141 325.659 445.047 322.455 434.75 319.617 424.236 317.206 413.545 315.217 402.564 313.662 391.431 312.534 380.076 311.854 368.75 311.688 357.482 311.919 346.41 312.607 335.462 313.755 324.662 315.296 314.038 317.238 303.625 319.643 293.344 325.496 273.579 332.862 254.726 341.665 236.95 351.848 220.323 357.467 212.484 363.301 205.041 369.436 197.941 375.934 191.178 382.654 184.853 389.66 178.888 396.927 173.394 404.384 168.294 412.217 163.694 420.127 159.521 428.358 155.861 436.767 152.658 445.396 150.003 454.234 147.852 463.2 146.268 472.308 145.191 473.241 153.136 464.585 154.147 456.119 155.627 447.741 157.651 439.61 160.136 431.6 163.175 423.857 166.598 416.26 170.598 408.897 174.899 401.747 179.779 394.843 184.982 388.134 190.681 381.699 196.725 375.487 203.173 369.595 209.98 363.964 217.151 358.666 224.507 348.831 240.506 340.311 257.642 333.166 275.853 327.432 295.169 325.102 305.094 323.212 315.189 321.71 325.51 320.591 335.967 319.917 346.578 319.687 357.367 319.84 368.273 320.495 379.287 321.585 390.326 323.089 401.141 325.01 411.787 327.341 422.153 330.095 432.376 333.201 442.38 336.654 452.153 340.411 461.508 349.114 479.681 358.994 496.617 370.121 512.331 382.348 526.653 388.866 533.266 395.502 539.467 402.475 545.331 409.633 550.723 416.862 555.739 424.42 560.28 432.105 564.429 439.899 568.121 447.917 571.316 456.017 574.016 464.32 576.27 472.676 578.025 480.967 579.218 487.662 579.484ZM483.646 571.434 507.502 583.717 483.362 595.432Z" fill="#003D59"/><path d="M344.378 214.055 343.871 225.305 342.856 235.643 341.331 245.843 339.43 255.871 337.145 265.661 334.48 275.315 328.028 293.878 320.086 311.578 310.872 328.193 300.307 343.75 288.585 357.983 275.766 370.828 268.858 376.783 261.839 382.276 254.548 387.399 246.979 392.089 239.228 396.324 231.305 400.163 223.141 403.514 214.808 406.405 206.26 408.791 197.618 410.717 188.727 412.079 179.745 412.92 169.184 413.248 168.941 405.252 179.005 404.955 187.523 404.171 195.882 402.908 204.115 401.084 212.192 398.845 220.109 396.111 227.82 392.962 235.397 389.301 242.771 385.286 249.952 380.851 256.911 375.974 263.642 370.717 270.109 365.172 282.415 352.892 293.693 339.25 303.878 324.307 312.789 308.297 320.472 291.247 326.77 273.185 329.355 263.839 331.57 254.379 333.419 244.657 334.894 234.857 335.879 224.945 336.386 213.695ZM328.359 217.804 340.5 193.875 352.358 217.945Z" fill="#003D59" transform="matrix(0.057113 0.998368 0.998368 -0.057113 553.208 257.877)"/><path d="M266.099 201.573 261.044 206.297 249.582 214.562 237.393 221.704 224.522 227.804 211.028 232.871 197.043 236.907 182.659 239.797 168.065 241.656 153.252 242.37 138.318 241.936 123.526 240.416 108.768 237.682 94.3326 233.799 80.201 228.699 66.508 222.38 56.7879 216.923 47.6835 210.971 39.1283 204.424 31.2589 197.346 36.616 191.404 43.9967 198.076 52.0665 204.279 60.7121 209.952 69.867 215.12 82.924 221.176 96.4173 226.076 110.232 229.818 124.349 232.459 138.557 233.939 152.873 234.379 167.06 233.719 181.091 231.953 194.832 229.218 208.222 225.379 221.103 220.571 233.357 214.796 244.918 208.063 255.581 200.453 260.636 195.728ZM252.1 192.901 277.625 184.625 268.931 210.01Z" fill="#003D59" transform="matrix(0.684924 0.728614 0.728614 -0.684924 640 260.74)"/></g></svg>